<svg width="30" height="30" viewBox="0 0 52 52" fill="none" xmlns="http://www.w3.org/2000/svg">
    <path d="M25.7812 0.4375C18.9436 0.4375 12.3861 3.15373 7.55115 7.98865C2.71623 12.8236 0 19.3811 0 26.2188C0 33.0564 2.71623 39.6139 7.55115 44.4488C12.3861 49.2838 18.9436 52 25.7812 52C32.6189 52 39.1764 49.2838 44.0113 44.4488C48.8463 39.6139 51.5625 33.0564 51.5625 26.2188C51.5625 19.3811 48.8463 12.8236 44.0113 7.98865C39.1764 3.15373 32.6189 0.4375 25.7812 0.4375ZM25.7812 46.8438C20.3112 46.8438 15.0651 44.6708 11.1972 40.8028C7.32923 36.9349 5.15625 31.6888 5.15625 26.2188C5.15625 20.7487 7.32923 15.5026 11.1972 11.6347C15.0651 7.76674 20.3112 5.59375 25.7812 5.59375C31.2513 5.59375 36.4974 7.76674 40.3653 11.6347C44.2333 15.5026 46.4062 20.7487 46.4062 26.2188C46.4062 31.6888 44.2333 36.9349 40.3653 40.8028C36.4974 44.6708 31.2513 46.8438 25.7812 46.8438ZM27.5 24.5V17.625H34.375V14.1875H27.5V10.75H24.0625V14.1875H17.1875V27.9375H24.0625V34.8125H17.1875V38.25H24.0625V41.6875H27.5V38.25H34.375V24.5H27.5ZM24.0625 24.5H20.625V17.625H24.0625V24.5ZM30.9375 34.8125H27.5V27.9375H30.9375V34.8125Z" fill="#E3E3E3"/>
</svg>
