<svg width="30" height="30" viewBox="0 0 55 55" fill="none" xmlns="http://www.w3.org/2000/svg">
    <path d="M28.7812 0.4375C21.9436 0.4375 15.3861 3.15373 10.5512 7.98865C5.71623 12.8236 3 19.3811 3 26.2188C3 33.0564 5.71623 39.6139 10.5512 44.4488C15.3861 49.2838 21.9436 52 28.7812 52C35.6189 52 42.1764 49.2838 47.0113 44.4488C51.8463 39.6139 54.5625 33.0564 54.5625 26.2188C54.5625 19.3811 51.8463 12.8236 47.0113 7.98865C42.1764 3.15373 35.6189 0.4375 28.7812 0.4375ZM28.7812 46.8438C23.3112 46.8438 18.0651 44.6708 14.1972 40.8028C10.3292 36.9349 8.15625 31.6888 8.15625 26.2188C8.15625 20.7487 10.3292 15.5026 14.1972 11.6347C18.0651 7.76674 23.3112 5.59375 28.7812 5.59375C34.2513 5.59375 39.4974 7.76674 43.3653 11.6347C47.2333 15.5026 49.4062 20.7487 49.4062 26.2188C49.4062 31.6888 47.2333 36.9349 43.3653 40.8028C39.4974 44.6708 34.2513 46.8438 28.7812 46.8438Z" fill="#FFFFFF"/>
    <path d="M35.6562 34.8125H23.625V27.9375H28.7812C29.2371 27.9375 29.6743 27.7564 29.9966 27.4341C30.3189 27.1118 30.5 26.6746 30.5 26.2188C30.5 25.7629 30.3189 25.3258 29.9966 25.0034C29.6743 24.6811 29.2371 24.5 28.7812 24.5H23.625V22.7813C23.6293 21.648 24.0064 20.5477 24.6981 19.6499C25.3897 18.7522 26.3575 18.107 27.4522 17.8138C28.5469 17.5205 29.7076 17.5956 30.7554 18.0274C31.8032 18.4592 32.6798 19.2238 33.25 20.2031C33.3631 20.3984 33.5135 20.5694 33.6927 20.7065C33.8719 20.8436 34.0763 20.9441 34.2943 21.0022C34.5124 21.0603 34.7397 21.0749 34.9633 21.0451C35.187 21.0154 35.4026 20.9419 35.5978 20.8288C35.7931 20.7157 35.9641 20.5653 36.1012 20.3861C36.2383 20.2069 36.3388 20.0024 36.3969 19.7844C36.455 19.5664 36.4696 19.3391 36.4398 19.1154C36.41 18.8918 36.3365 18.6762 36.2234 18.481C35.4665 17.1769 34.3811 16.094 33.0754 15.3401C31.7696 14.5862 30.289 14.1876 28.7812 14.1841C26.5029 14.1868 24.3186 15.0931 22.7076 16.7041C21.0965 18.3152 20.1902 20.4995 20.1875 22.7778V24.4966H18.4688C18.0129 24.4966 17.5757 24.6777 17.2534 25C16.9311 25.3223 16.75 25.7595 16.75 26.2153C16.75 26.6712 16.9311 27.1083 17.2534 27.4307C17.5757 27.753 18.0129 27.9341 18.4688 27.9341H20.1875V38.2466H35.6562C36.1121 38.2466 36.5493 38.0655 36.8716 37.7432C37.1939 37.4208 37.375 36.9837 37.375 36.5278C37.375 36.072 37.1939 35.6348 36.8716 35.3125C36.5493 34.9902 36.1121 34.8091 35.6562 34.8091V34.8125Z" fill="#FFFFFF"/>
</svg>
