<svg width="50" height="50" viewBox="0 0 121 121" fill="none" xmlns="http://www.w3.org/2000/svg">
<path d="M85.3347 82.6985C85.3347 82.6985 102.941 65.0926 108.959 59.0863C127.848 40.1978 118.4 2.40846 118.4 2.40846C118.4 2.40846 80.611 -7.03887 61.7225 11.8558C47.6009 25.9775 38.1905 35.7023 38.1905 35.7023C38.1905 35.7023 14.492 30.7443 0.321045 44.9153L75.8935 120.488C90.0645 106.317 85.3347 82.6985 85.3347 82.6985ZM76.0724 27.291C77.2167 26.1446 78.5759 25.2352 80.0721 24.6147C81.5684 23.9942 83.1722 23.6748 84.792 23.6748C86.4118 23.6748 88.0157 23.9942 89.5119 24.6147C91.0081 25.2352 92.3673 26.1446 93.5117 27.291C95.2369 29.0157 96.4119 31.2132 96.8881 33.6058C97.3643 35.9983 97.1203 38.4783 96.1869 40.7322C95.2535 42.986 93.6727 44.9124 91.6444 46.2678C89.6162 47.6232 87.2315 48.3466 84.792 48.3466C82.3526 48.3466 79.9679 47.6232 77.9396 46.2678C75.9113 44.9124 74.3305 42.986 73.3972 40.7322C72.4638 38.4783 72.2198 35.9983 72.6959 33.6058C73.1721 31.2132 74.3471 29.0157 76.0724 27.291ZM6.30888 114.309C6.30888 114.309 24.8089 114.309 37.1422 101.975L18.6422 83.4755C6.30888 89.6421 6.30888 114.309 6.30888 114.309Z" fill="#35C5C9"/>
</svg>
