<?xml version="1.0" standalone="no"?>
<!DOCTYPE svg PUBLIC "-//W3C//DTD SVG 20010904//EN"
 "http://www.w3.org/TR/2001/REC-SVG-20010904/DTD/svg10.dtd">
<svg version="1.0" xmlns="http://www.w3.org/2000/svg"
 width="1000.000000pt" height="500.000000pt" viewBox="0 0 1000.000000 500.000000"
 preserveAspectRatio="xMidYMid meet">
<metadata>
Created by potrace 1.16, written by Peter Selinger 2001-2019
</metadata>
<g transform="translate(0.000000,500.000000) scale(0.100000,-0.100000)"
fill="#000000" stroke="none">
<path d="M4499 4174 c-354 -316 -645 -579 -647 -584 -2 -6 61 -11 146 -12
l150 -3 -449 -730 c-247 -401 -452 -731 -456 -732 -5 -1 -39 49 -78 112 l-70
114 -331 1 -331 0 -623 -1017 c-343 -560 -630 -1028 -638 -1041 l-14 -22 337
2 337 3 459 750 c253 413 464 756 468 763 5 9 31 -24 80 -102 l73 -116 336 2
337 3 615 1007 615 1007 168 1 167 0 0 585 c0 322 -2 585 -4 585 -2 0 -293
-259 -647 -576z"/>
<path d="M7340 3574 c-187 -35 -356 -182 -419 -367 -66 -192 -41 -386 64 -492
120 -119 353 -138 544 -43 81 39 184 141 229 224 17 34 32 65 32 68 0 3 -56 6
-125 6 l-125 0 -42 -46 c-49 -53 -78 -70 -147 -85 -138 -29 -231 65 -218 222
14 161 113 280 248 296 86 10 177 -42 195 -113 6 -24 7 -24 131 -24 l126 0 -6
58 c-13 123 -102 237 -217 278 -44 15 -220 27 -270 18z"/>
<path d="M5441 3498 c-7 -40 -15 -83 -18 -95 -5 -23 -5 -23 121 -23 72 0 126
-4 126 -9 0 -10 -115 -672 -126 -723 l-6 -28 121 0 c105 0 120 2 124 18 3 9
34 180 68 380 l63 362 128 0 c70 0 128 2 128 4 0 2 7 40 15 83 8 43 15 84 15
91 0 9 -81 12 -373 12 l-374 0 -12 -72z"/>
<path d="M6285 3558 c-2 -7 -38 -211 -79 -453 -42 -242 -79 -450 -81 -462 l-5
-23 300 0 c165 0 300 1 300 3 0 1 7 40 15 87 8 47 15 88 15 93 0 4 -80 7 -179
7 l-179 0 14 78 c8 42 17 87 19 100 5 22 8 22 164 22 l158 0 12 73 c7 39 15
80 17 90 5 16 -7 17 -156 17 -149 0 -161 1 -156 18 2 9 10 52 17 95 l12 77
178 0 c201 0 180 -10 198 94 19 107 52 96 -284 96 -228 0 -297 -3 -300 -12z"/>
<path d="M8010 3564 c0 -3 -36 -211 -80 -462 -44 -251 -80 -462 -80 -469 0
-10 28 -13 118 -13 l118 0 33 195 34 195 174 0 173 0 -5 -22 c-2 -13 -16 -90
-31 -173 -14 -82 -28 -160 -31 -172 -5 -23 -5 -23 116 -23 117 0 121 1 126 23
3 12 39 216 80 452 41 237 77 440 80 453 l6 23 -123 -3 -122 -3 -31 -175 -30
-175 -172 -3 c-95 -1 -173 1 -173 5 0 5 14 82 30 173 17 91 30 168 30 173 0 4
-54 7 -120 7 -66 0 -120 -3 -120 -6z"/>
<path d="M6403 2505 c-162 -44 -297 -170 -354 -330 -30 -83 -37 -246 -15 -339
57 -244 264 -406 516 -406 155 0 286 53 385 154 208 212 206 578 -4 786 -112
110 -214 150 -381 149 -52 0 -119 -7 -147 -14z m284 -216 c144 -70 209 -256
154 -440 -29 -92 -97 -166 -180 -194 -70 -23 -189 -17 -246 12 -88 46 -149
138 -164 248 -27 191 60 347 217 392 63 17 163 9 219 -18z"/>
<path d="M4560 1975 l0 -535 110 0 110 0 0 225 0 225 180 0 180 0 0 85 0 85
-180 0 -180 0 0 135 0 135 220 0 220 0 0 90 0 90 -330 0 -330 0 0 -535z"/>
<path d="M5360 1975 l0 -535 290 0 290 0 0 85 0 85 -180 0 -180 0 0 450 0 450
-110 0 -110 0 0 -535z"/>
<path d="M7190 2504 c0 -7 233 -960 251 -1026 l10 -38 134 0 134 0 10 38 c6
20 49 185 96 366 47 181 87 331 88 333 2 2 46 -162 98 -365 l95 -367 136 -3
136 -3 127 516 c70 284 129 525 132 536 5 18 -1 19 -115 19 -87 0 -121 -3
-124 -12 -3 -7 -38 -183 -79 -390 -40 -208 -76 -378 -79 -378 -3 0 -50 176
-105 390 l-100 390 -122 0 c-68 0 -123 -2 -123 -5 0 -11 -191 -750 -198 -768
-5 -11 -33 112 -75 330 -38 191 -73 369 -78 396 l-11 47 -119 0 c-65 0 -119
-3 -119 -6z"/>
<path d="M1609 2326 c-96 -34 -193 -131 -259 -257 -116 -223 -75 -408 109
-492 71 -33 170 -30 241 7 145 76 290 311 290 471 0 23 -7 65 -16 95 -21 70
-98 149 -168 173 -58 20 -146 21 -197 3z m136 -246 c-1 -96 -103 -263 -187
-306 -27 -14 -31 -14 -50 3 -15 14 -19 26 -15 55 16 117 166 315 232 306 17
-3 20 -10 20 -58z"/>
<path d="M3705 1330 c-95 -20 -159 -53 -216 -109 -66 -66 -84 -118 -83 -231 1
-138 54 -201 244 -292 69 -33 135 -69 148 -81 41 -38 19 -97 -37 -97 -34 0
-61 28 -61 63 l0 27 -181 0 -182 0 6 -60 c21 -192 168 -300 412 -300 190 0
333 68 400 192 23 42 30 68 33 133 6 115 -8 157 -76 225 -47 46 -77 64 -170
104 -135 58 -162 78 -162 115 0 33 16 51 46 51 25 0 54 -34 54 -62 0 -17 14
-18 181 -18 l182 0 -6 54 c-12 122 -89 223 -203 266 -46 17 -85 23 -174 26
-63 2 -133 -1 -155 -6z"/>
<path d="M6870 1315 c-253 -69 -423 -275 -460 -557 -43 -324 155 -530 486
-504 162 12 291 73 400 189 60 63 134 186 134 222 0 13 -25 15 -173 15 l-173
0 -35 -36 c-48 -50 -99 -74 -158 -74 -42 0 -56 5 -85 30 -112 99 -31 368 124
410 74 20 143 -8 175 -71 l16 -29 180 0 180 0 -7 58 c-10 86 -29 140 -69 198
-40 57 -114 114 -185 140 -64 24 -276 29 -350 9z"/>
<path d="M4415 1298 c-11 -53 -175 -1005 -175 -1020 0 -16 15 -18 169 -18
l168 0 7 43 c4 23 16 96 28 163 l21 121 116 6 c182 9 287 50 374 147 58 65 93
138 107 225 28 176 -45 299 -203 341 -38 10 -125 14 -329 14 l-278 0 -5 -22z
m430 -258 c35 -13 48 -51 32 -97 -18 -53 -52 -74 -132 -81 -63 -5 -67 -4 -62
14 3 10 11 54 18 97 l12 77 53 0 c29 0 64 -4 79 -10z"/>
<path d="M5418 807 c-152 -281 -280 -520 -284 -529 -6 -17 7 -18 173 -18 l179
0 39 80 39 80 172 0 172 0 7 -67 c4 -36 9 -72 12 -80 4 -10 45 -13 184 -13
l179 0 -5 23 c-7 30 -195 1023 -195 1031 0 3 -89 6 -197 6 l-198 0 -277 -513z
m431 -11 l17 -116 -83 0 c-46 0 -83 2 -83 5 0 16 126 254 128 242 2 -8 11 -67
21 -131z"/>
<path d="M7655 1308 c-2 -7 -43 -236 -90 -508 -48 -272 -89 -505 -92 -517 l-5
-23 359 0 359 0 18 108 c10 59 20 119 23 135 l6 27 -188 0 -187 0 5 23 c3 12
9 43 12 69 l7 48 164 0 c162 0 164 0 169 23 2 12 12 63 20 112 9 50 19 98 21
108 5 16 -7 17 -161 17 l-167 0 6 30 c3 16 9 43 12 60 l5 30 187 2 186 3 17
100 c10 55 21 115 24 133 l6 32 -356 0 c-276 0 -357 -3 -360 -12z"/>
<path d="M2578 1036 c-123 -44 -261 -221 -304 -389 -20 -77 -14 -168 14 -223
68 -133 247 -197 377 -134 123 58 259 246 291 401 32 156 -40 298 -175 344
-54 18 -153 19 -203 1z m150 -219 c5 -46 -29 -137 -81 -214 -58 -87 -104 -126
-144 -121 -27 3 -28 5 -28 54 1 37 10 69 33 115 74 149 210 252 220 166z"/>
</g>
</svg>
