<svg width="22" height="22" viewBox="0 0 58 58" fill="none" xmlns="http://www.w3.org/2000/svg">
    <path d="M0 29C0 21.3087 3.05535 13.9325 8.4939 8.4939C13.9325 3.05535 21.3087 0 29 0C36.6913 0 44.0675 3.05535 49.5061 8.4939C54.9446 13.9325 58 21.3087 58 29C58 36.6913 54.9446 44.0675 49.5061 49.5061C44.0675 54.9446 36.6913 58 29 58C21.3087 58 13.9325 54.9446 8.4939 49.5061C3.05535 44.0675 0 36.6913 0 29H0ZM27.3451 41.412L44.0413 20.5397L41.0253 18.1269L26.7883 35.9175L16.704 27.5152L14.2293 30.4848L27.3451 41.4159V41.412Z" fill="#49B1B8" />
</svg>